<svg xmlns="http://www.w3.org/2000/svg" xmlns:xlink="http://www.w3.org/1999/xlink" width="64" height="64" viewBox="0 0 64 64"><rect width="64" height="64" fill="#0F3B2F"/><svg x="15.113" y="11.000" width="33.774" height="42" viewBox="139.52 117.52 95.965 119.34" preserveAspectRatio="xMidYMid meet"><defs><g/><clipPath id="83cd29594f"><path d="M 117.546875 105.875 L 257.792969 105.875 L 257.792969 269.375 L 117.546875 269.375 Z M 117.546875 105.875 " clip-rule="nonzero"/></clipPath><clipPath id="62ab2d7db2"><path d="M 187.5 105.875 C 148.867188 105.875 117.546875 142.417969 117.546875 187.496094 C 117.546875 232.574219 148.867188 269.117188 187.5 269.117188 C 226.132812 269.117188 257.453125 232.574219 257.453125 187.496094 C 257.453125 142.417969 226.132812 105.875 187.5 105.875 Z M 187.5 105.875 " clip-rule="nonzero"/></clipPath><clipPath id="2e2785131a"><path d="M 82.566406 64.179688 L 292.566406 64.179688 L 292.566406 310.855469 L 82.566406 310.855469 Z M 82.566406 64.179688 " clip-rule="nonzero"/></clipPath><clipPath id="66ccf4c691"><path d="M 187.496094 64.179688 C 129.546875 64.179688 82.566406 119.390625 82.566406 187.496094 C 82.566406 255.601562 129.546875 310.8125 187.496094 310.8125 C 245.449219 310.8125 292.425781 255.601562 292.425781 187.496094 C 292.425781 119.390625 245.449219 64.179688 187.496094 64.179688 Z M 187.496094 64.179688 " clip-rule="nonzero"/></clipPath><clipPath id="cb53785027"><path d="M 86.808594 68.710938 L 288.558594 68.710938 L 288.558594 306.460938 L 86.808594 306.460938 Z M 86.808594 68.710938 " clip-rule="nonzero"/></clipPath><clipPath id="6568a76bd2"><path d="M 187.496094 68.710938 C 131.886719 68.710938 86.808594 121.894531 86.808594 187.496094 C 86.808594 253.097656 131.886719 306.28125 187.496094 306.28125 C 243.101562 306.28125 288.183594 253.097656 288.183594 187.496094 C 288.183594 121.894531 243.101562 68.710938 187.496094 68.710938 Z M 187.496094 68.710938 " clip-rule="nonzero"/></clipPath><clipPath id="4918d313e5"><rect x="0" width="174" y="0" height="74"/></clipPath><clipPath id="d15ea31c0a"><path d="M 121.8125 110.007812 L 253.0625 110.007812 L 253.0625 265 L 121.8125 265 Z M 121.8125 110.007812 " clip-rule="nonzero"/></clipPath><clipPath id="1d34cb8552"><path d="M 187.496094 110.007812 C 151.21875 110.007812 121.8125 144.699219 121.8125 187.496094 C 121.8125 230.292969 151.21875 264.984375 187.496094 264.984375 C 223.769531 264.984375 253.179688 230.292969 253.179688 187.496094 C 253.179688 144.699219 223.769531 110.007812 187.496094 110.007812 Z M 187.496094 110.007812 " clip-rule="nonzero"/></clipPath><clipPath id="d53c0c2b6b"><rect x="0" width="22" y="0" height="26"/></clipPath><clipPath id="606037bde3"><rect x="0" width="22" y="0" height="26"/></clipPath><clipPath id="88a30aec86"><rect x="0" width="114" y="0" height="36"/></clipPath><clipPath id="9c4f386197"><path d="M 182 119.796875 L 203 119.796875 L 203 226 L 182 226 Z M 182 119.796875 " clip-rule="nonzero"/></clipPath><clipPath id="adf644e2ba"><path d="M 170 119.796875 L 183 119.796875 L 183 226 L 170 226 Z M 170 119.796875 " clip-rule="nonzero"/></clipPath><clipPath id="e41157e02f"><path d="M 141.105469 225 L 234 225 L 234 234.546875 L 141.105469 234.546875 Z M 141.105469 225 " clip-rule="nonzero"/></clipPath></defs><g clip-path="url(#83cd29594f)"><g clip-path="url(#62ab2d7db2)"></g></g><g clip-path="url(#2e2785131a)"><g clip-path="url(#66ccf4c691)"></g></g><g clip-path="url(#cb53785027)"><g clip-path="url(#6568a76bd2)"></g></g><g transform="matrix(1, 0, 0, 1, 101, 75)"><g clip-path="url(#4918d313e5)"><g fill="#eee8e0" fill-opacity="1"><g transform="translate(17.606738, 69.239284)"><g></g></g></g><g fill="#eee8e0" fill-opacity="1"><g transform="translate(23.982009, 55.54734)"><g></g></g></g><g fill="#eee8e0" fill-opacity="1"><g transform="translate(32.856593, 43.64785)"><g></g></g></g><g fill="#eee8e0" fill-opacity="1"><g transform="translate(43.759102, 33.683683)"><g></g></g></g><g fill="#eee8e0" fill-opacity="1"><g transform="translate(59.862711, 25.137441)"><g></g></g></g><g fill="#eee8e0" fill-opacity="1"><g transform="translate(74.173262, 21.166675)"><g></g></g></g><g fill="#eee8e0" fill-opacity="1"><g transform="translate(88.962916, 20.500231)"><g/></g></g><g fill="#eee8e0" fill-opacity="1"><g transform="translate(95.298029, 20.726271)"><g></g></g></g><g fill="#eee8e0" fill-opacity="1"><g transform="translate(108.384979, 23.268965)"><g></g></g></g><g fill="#eee8e0" fill-opacity="1"><g transform="translate(124.856976, 31.162304)"><g></g></g></g><g fill="#eee8e0" fill-opacity="1"><g transform="translate(135.549372, 39.628613)"><g></g></g></g><g fill="#eee8e0" fill-opacity="1"><g transform="translate(140.608852, 44.30351)"><g></g></g></g><g fill="#eee8e0" fill-opacity="1"><g transform="translate(149.163042, 56.124908)"><g></g></g></g></g></g><g clip-path="url(#d15ea31c0a)"><g clip-path="url(#1d34cb8552)"></g></g><g transform="matrix(1, 0, 0, 1, 92, 170)"><g clip-path="url(#d53c0c2b6b)"><g fill="#eee8e0" fill-opacity="1"><g transform="translate(1.199306, 17.781593)"><g></g></g></g><g fill="#eee8e0" fill-opacity="1"><g transform="translate(11.041643, 17.781593)"><g></g></g></g></g></g><g transform="matrix(1, 0, 0, 1, 261, 170)"><g clip-path="url(#606037bde3)"><g fill="#eee8e0" fill-opacity="1"><g transform="translate(1.095332, 17.781593)"><g></g></g></g><g fill="#eee8e0" fill-opacity="1"><g transform="translate(10.937669, 17.781593)"><g></g></g></g></g></g><g transform="matrix(1, 0, 0, 1, 132, 265)"><g clip-path="url(#88a30aec86)"><g fill="#eee8e0" fill-opacity="1"><g transform="translate(3.548371, 12.284179)"><g></g></g></g><g fill="#eee8e0" fill-opacity="1"><g transform="translate(13.205172, 18.700655)"><g></g></g></g><g fill="#eee8e0" fill-opacity="1"><g transform="translate(22.825146, 23.502507)"><g></g></g></g><g fill="#eee8e0" fill-opacity="1"><g transform="translate(34.000306, 27.265331)"><g></g></g></g><g fill="#eee8e0" fill-opacity="1"><g transform="translate(43.574977, 29.165892)"><g/></g></g><g fill="#eee8e0" fill-opacity="1"><g transform="translate(48.883704, 29.913589)"><g></g></g></g><g fill="#eee8e0" fill-opacity="1"><g transform="translate(59.563464, 30.135244)"><g></g></g></g><g fill="#eee8e0" fill-opacity="1"><g transform="translate(68.344986, 29.4404)"><g></g></g></g><g fill="#eee8e0" fill-opacity="1"><g transform="translate(79.513306, 27.148424)"><g></g></g></g><g fill="#eee8e0" fill-opacity="1"><g transform="translate(90.669042, 23.218887)"><g></g></g></g><g fill="#eee8e0" fill-opacity="1"><g transform="translate(100.794726, 18.035228)"><g></g></g></g></g></g><g clip-path="url(#9c4f386197)"><path fill="#eee8e0" d="M 202.226562 128.390625 L 202.226562 144.996094 L 199.363281 147.058594 L 199.363281 130.234375 L 196.496094 129.003906 L 196.496094 149.121094 L 193.8125 151.054688 L 193.632812 151.183594 L 193.632812 127.78125 L 190.769531 126.550781 L 190.769531 225.210938 L 187.90625 225.210938 L 187.90625 125.324219 L 185.042969 124.09375 L 185.042969 225.210938 L 182.179688 225.210938 L 182.179688 119.800781 L 185.042969 121.023438 L 187.90625 122.253906 L 190.769531 123.476562 L 193.632812 124.710938 L 196.496094 125.933594 L 199.363281 127.164062 L 202.226562 128.390625 " fill-opacity="1" fill-rule="nonzero"/></g><g clip-path="url(#adf644e2ba)"><path fill="#d2ccc4" d="M 182.179688 119.800781 L 182.179688 225.210938 L 177.335938 225.210938 L 177.335938 169.332031 L 176.4375 168.691406 L 175.273438 167.847656 L 172.925781 166.160156 L 170.582031 164.46875 L 170.246094 164.226562 L 170.246094 128.390625 L 182.179688 119.800781 " fill-opacity="1" fill-rule="nonzero"/></g><path fill="#eee8e0" d="M 221.316406 152.800781 L 221.316406 225.210938 L 218.960938 225.210938 L 218.960938 154.316406 L 216.613281 153.300781 L 216.613281 225.210938 L 214.257812 225.210938 L 214.257812 152.300781 L 211.910156 151.289062 L 211.910156 225.210938 L 209.5625 225.210938 L 209.5625 150.28125 L 207.207031 149.269531 L 207.207031 225.210938 L 204.859375 225.210938 L 204.859375 145.75 L 207.207031 146.75 L 209.5625 147.761719 L 214.257812 149.777344 L 216.613281 150.78125 L 218.960938 151.792969 L 221.316406 152.800781 " fill-opacity="1" fill-rule="nonzero"/><path fill="#d2ccc4" d="M 204.859375 145.75 L 204.859375 225.210938 L 195.066406 225.210938 L 195.066406 152.800781 L 196.496094 151.769531 L 199.363281 149.707031 L 202.226562 147.644531 L 204.859375 145.75 " fill-opacity="1" fill-rule="nonzero"/><path fill="#d2ccc4" d="M 167.160156 164.65625 L 167.160156 225.210938 L 165.234375 225.210938 L 165.234375 167.546875 L 163.316406 168.371094 L 163.316406 225.210938 L 161.390625 225.210938 L 161.390625 169.195312 L 159.464844 170.023438 L 159.464844 225.210938 L 157.539062 225.210938 L 157.539062 170.847656 L 155.613281 171.671875 L 155.613281 225.210938 L 153.6875 225.210938 L 153.6875 170.433594 L 155.613281 169.609375 L 157.539062 168.777344 L 159.464844 167.957031 L 163.316406 166.308594 L 165.234375 165.476562 L 167.160156 164.65625 " fill-opacity="1" fill-rule="nonzero"/><path fill="#eee8e0" d="M 175.1875 170.433594 L 175.1875 225.210938 L 167.167969 225.210938 L 167.167969 164.660156 L 169.324219 166.214844 L 170.246094 166.875 L 171.671875 167.898438 L 174.011719 169.585938 L 175.1875 170.433594 " fill-opacity="1" fill-rule="nonzero"/><g clip-path="url(#e41157e02f)"><path fill="#eee8e0" d="M 231.050781 234.875 L 143.949219 234.875 C 141.988281 234.875 141.109375 232.414062 142.628906 231.171875 L 149.339844 225.683594 C 149.710938 225.378906 150.179688 225.210938 150.660156 225.210938 L 224.339844 225.210938 C 224.820312 225.210938 225.285156 225.378906 225.660156 225.683594 L 232.371094 231.171875 C 233.886719 232.414062 233.011719 234.875 231.050781 234.875 " fill-opacity="1" fill-rule="nonzero"/></g></svg></svg>